<?xml version="1.0" encoding="iso-8859-1"?>
<!-- Generator: Adobe Illustrator 19.0.0, SVG Export Plug-In . SVG Version: 6.00 Build 0)  -->
<svg version="1.1" id="Layer_1" xmlns="http://www.w3.org/2000/svg" xmlns:xlink="http://www.w3.org/1999/xlink" x="0px" y="0px"
	 viewBox="0 0 512 512" style="enable-background:new 0 0 512 512;" xml:space="preserve">
<path style="fill:#FE5D26;" d="M264.44,376.967c-71.355,0-129.407-58.052-129.407-129.407c0-37.288-30.228-67.516-67.516-67.516
	S0,210.272,0,247.56c0,70.635,27.506,137.042,77.453,186.987C127.398,484.494,193.805,512,264.44,512
	c37.288,0,67.516-30.228,67.516-67.516S301.728,376.967,264.44,376.967z"/>
<path style="fill:#FE841A;" d="M444.484,196.923c-71.355,0-129.407-58.052-129.407-129.407C315.077,30.228,284.849,0,247.56,0
	s-67.516,30.228-67.516,67.516c0,70.635,27.506,137.042,77.453,186.987c49.945,49.946,116.352,77.453,186.987,77.453
	c37.288,0,67.516-30.228,67.516-67.516S481.772,196.923,444.484,196.923z"/>
<g>
	<circle style="fill:#F63E31;" cx="235.745" cy="459.675" r="8.44"/>
	<circle style="fill:#F63E31;" cx="86.084" cy="242.497" r="8.44"/>
	<circle style="fill:#F63E31;" cx="52.325" cy="276.255" r="8.44"/>
</g>
<g>
	<circle style="fill:#FE5D26;" cx="449.547" cy="279.631" r="8.44"/>
	<circle style="fill:#FE5D26;" cx="415.789" cy="245.873" r="8.44"/>
</g>
<g>
</g>
<g>
</g>
<g>
</g>
<g>
</g>
<g>
</g>
<g>
</g>
<g>
</g>
<g>
</g>
<g>
</g>
<g>
</g>
<g>
</g>
<g>
</g>
<g>
</g>
<g>
</g>
<g>
</g>
</svg>
